<svg width="13" height="14" viewBox="0 0 13 14" fill="none" xmlns="http://www.w3.org/2000/svg">
<path d="M0.840169 7.83326H10.1485L6.08184 11.8999C5.75684 12.2249 5.75684 12.7583 6.08184 13.0833C6.40684 13.4083 6.93184 13.4083 7.25684 13.0833L12.7485 7.59159C13.0735 7.26659 13.0735 6.74159 12.7485 6.41659L7.26517 0.91659C7.10948 0.760546 6.8981 0.672852 6.67767 0.672852C6.45724 0.672852 6.24586 0.760546 6.09017 0.91659C5.76517 1.24159 5.76517 1.76659 6.09017 2.09159L10.1485 6.16659H0.840169C0.381836 6.16659 0.00683594 6.54159 0.00683594 6.99992C0.00683594 7.45826 0.381836 7.83326 0.840169 7.83326Z" fill="black"/>
</svg>
