<svg width="50" height="50" viewBox="0 0 50 50" fill="none" xmlns="http://www.w3.org/2000/svg">
<path d="M20.8327 16.6666C20.8327 20.595 20.8327 22.5591 19.6123 23.7795C18.3919 24.9999 16.4277 24.9999 12.4993 24.9999C8.57097 24.9999 6.60679 24.9999 5.38641 23.7795C4.16602 22.5591 4.16602 20.595 4.16602 16.6666C4.16602 12.7382 4.16602 10.774 5.38641 9.55365C6.60679 8.33325 8.57097 8.33325 12.4993 8.33325C16.4277 8.33325 18.3919 8.33325 19.6123 9.55365C20.8327 10.774 20.8327 12.7382 20.8327 16.6666Z" stroke="black" stroke-width="1.5"/>
<path d="M20.834 14.5833V23.921C20.834 32.1972 15.5929 39.216 8.33398 41.6666" stroke="black" stroke-width="1.5" stroke-linecap="round"/>
<path d="M45.8327 16.6666C45.8327 20.595 45.8327 22.5591 44.6123 23.7795C43.3918 24.9999 41.4277 24.9999 37.4993 24.9999C33.571 24.9999 31.6068 24.9999 30.3864 23.7795C29.166 22.5591 29.166 20.595 29.166 16.6666C29.166 12.7382 29.166 10.774 30.3864 9.55365C31.6068 8.33325 33.571 8.33325 37.4993 8.33325C41.4277 8.33325 43.3918 8.33325 44.6123 9.55365C45.8327 10.774 45.8327 12.7382 45.8327 16.6666Z" stroke="black" stroke-width="1.5"/>
<path d="M45.834 14.5833V23.921C45.834 32.1972 40.5929 39.216 33.334 41.6666" stroke="black" stroke-width="1.5" stroke-linecap="round"/>
</svg>
